<?xml version="1.0" encoding="utf-8"?>
<!-- Generator: Adobe Illustrator 27.5.0, SVG Export Plug-In . SVG Version: 6.00 Build 0)  -->
<svg version="1.1" xmlns="http://www.w3.org/2000/svg" xmlns:xlink="http://www.w3.org/1999/xlink" x="0px" y="0px"
	 viewBox="0 0 500 500" style="enable-background:new 0 0 500 500;" xml:space="preserve">
<g id="Background_Complete">
	<g>
		<rect x="416.779" y="398.494" style="fill:#EBEBEB;" width="33.122" height="0.25"/>
		<rect x="322.527" y="401.208" style="fill:#EBEBEB;" width="8.693" height="0.25"/>
		<rect x="396.586" y="389.208" style="fill:#EBEBEB;" width="19.192" height="0.25"/>
		<rect x="52.459" y="390.888" style="fill:#EBEBEB;" width="43.193" height="0.25"/>
		<rect x="104.556" y="390.888" style="fill:#EBEBEB;" width="6.333" height="0.25"/>
		<rect x="131.471" y="395.111" style="fill:#EBEBEB;" width="93.676" height="0.25"/>
		<path style="fill:#EBEBEB;" d="M237.014,337.8H43.915c-3.147,0-5.708-2.561-5.708-5.708V60.66c0-3.147,2.561-5.708,5.708-5.708
			h193.099c3.146,0,5.707,2.561,5.707,5.708v271.432C242.721,335.239,240.16,337.8,237.014,337.8z M43.915,55.203
			c-3.01,0-5.458,2.448-5.458,5.458v271.432c0,3.01,2.448,5.458,5.458,5.458h193.099c3.009,0,5.457-2.448,5.457-5.458V60.66
			c0-3.009-2.448-5.458-5.457-5.458H43.915z"/>
		<path style="fill:#EBEBEB;" d="M453.31,337.8H260.212c-3.147,0-5.707-2.561-5.707-5.708V60.66c0-3.147,2.561-5.708,5.707-5.708
			H453.31c3.148,0,5.708,2.561,5.708,5.708v271.432C459.019,335.239,456.458,337.8,453.31,337.8z M260.212,55.203
			c-3.009,0-5.457,2.448-5.457,5.458v271.432c0,3.01,2.448,5.458,5.457,5.458H453.31c3.01,0,5.458-2.448,5.458-5.458V60.66
			c0-3.009-2.448-5.458-5.458-5.458H260.212z"/>
		<rect y="382.398" style="fill:#EBEBEB;" width="500" height="0.25"/>
	</g>
	<g>
		<g>
			<path style="fill:#E6E6E6;" d="M378.369,348.171c0.125-12.135-1.121-25.316,0.757-36.557c0.317-1.898,0.351-3.93-0.33-5.798
				c-4.158,2.698-4.622,13.391-4.753,17.729c-3.471-10.43-5.596-22.123-4.466-32.819c0.409-3.876,0.409-9.629-3.67-6.122
				c-3.62,3.112-2.276,13.942-1.449,17.567c-2.742-8.496-6.124-16.969-8.877-25.25c-3.263-9.818-11.673-7.408-5.37,2.078
				c4.119,6.199,10.188,20.69,10.188,20.69c-0.024,0.012-19.324-23.427-22.667-19.603c-2.47,2.826,19.454,18.648,22.887,24.292
				c-2.945-2.957-13.084-10.088-14.96-5.923c-1.027,2.279,2.814,3.193,5.229,4.385c6.474,3.196,11.793,7.578,15.058,14.246
				c1.557,3.537,2.269,5.337,3.556,8.987c-2.041-3.145-10.413-10.228-11.71-7.327c-0.877,1.961,4.264,5.808,6.778,8.329
				c6.199,6.215,9.397,12.96,11.127,21.514C376.765,348.424,377.3,348.34,378.369,348.171z"/>
		</g>
		<g>
			<path style="fill:#E0E0E0;" d="M383.886,346.617c2.761-9.962,6.892-20.455,8.007-30.099c0.189-1.628,0.64-3.3,1.639-4.667
				c2.766,3.189,0.623,12.051-0.294,15.632c5.302-7.717,9.801-16.786,11.4-25.806c0.58-3.269,1.938-7.977,4.449-4.144
				c2.228,3.402-1.428,11.948-2.96,14.72c4.249-6.306,9.017-12.443,13.224-18.571c4.988-7.265,11.302-3.308,3.905,2.968
				c-4.834,4.101-13.221,14.529-13.221,14.529c0.017,0.015,21.344-14.613,23.178-10.694c1.355,2.896-20.323,10.671-24.464,14.481
				c3.108-1.725,13.089-5.168,13.642-1.317c0.303,2.108-3.057,1.949-5.314,2.355c-6.052,1.088-11.44,3.419-15.686,8.106
				c-2.109,2.527-3.117,3.832-5.031,6.516c2.413-2.093,10.936-5.913,11.313-3.233c0.255,1.812-4.86,3.748-7.513,5.217
				c-6.54,3.624-10.749,8.39-14.184,14.982C385.139,347.203,384.721,347.007,383.886,346.617z"/>
		</g>
		<g>
			<path style="fill:#F5F5F5;" d="M382.406,350.001c-2.265-15.119-3-31.782-7.296-45.481c-0.725-2.313-1.121-4.843-0.595-7.291
				c5.656,2.644,8.094,15.905,9.01,21.296c2.519-13.616,3.139-28.575-0.129-41.724c-1.184-4.765-2.183-11.943,3.516-8.276
				c5.057,3.254,5.262,17,4.859,21.667c1.945-11.076,4.693-22.237,6.689-33.047c2.366-12.817,13.278-11.271,7.061,1.66
				c-4.062,8.449-9.117,27.585-9.117,27.585c0.032,0.01,20.041-32.587,24.876-28.396c3.573,3.096-21.034,26.647-24.336,34.286
				c3.161-4.201,14.572-14.859,17.637-9.989c1.677,2.665-2.956,4.473-5.762,6.38c-7.522,5.112-13.398,11.505-16.313,20.391
				c-1.328,4.683-1.904,7.053-2.876,11.831c2-4.279,11.216-14.57,13.338-11.176c1.435,2.294-4.311,7.988-7.01,11.57
				c-6.654,8.831-9.473,17.803-10.145,28.776C384.452,350.037,383.77,350.025,382.406,350.001z"/>
		</g>
		<path style="fill:#EBEBEB;" d="M361.489,341.238l4.649,35.618c0.468,3.587,3.525,6.271,7.143,6.271h21.22
			c3.618,0,6.674-2.684,7.143-6.271l4.649-35.618H361.489z"/>
	</g>
	<g>
		<rect x="63.69" y="271.62" style="fill:#F0F0F0;" width="83.8" height="111.506"/>
		<rect x="147.491" y="271.62" style="fill:#E6E6E6;" width="15.986" height="111.506"/>
		<rect x="69.56" y="279.894" style="fill:#FAFAFA;" width="72.492" height="27.079"/>
		<path style="fill:#EBEBEB;" d="M96.353,279.894l0.317,3.61c0.104,1.191,1.101,2.104,2.297,2.104h13.679
			c1.195,0,2.192-0.913,2.297-2.104l0.317-3.61H96.353z"/>
		<rect x="69.56" y="309.931" style="fill:#FAFAFA;" width="72.492" height="27.079"/>
		<path style="fill:#EBEBEB;" d="M96.353,309.931l0.317,3.61c0.104,1.191,1.101,2.104,2.297,2.104h13.679
			c1.195,0,2.192-0.913,2.297-2.104l0.317-3.61H96.353z"/>
		<rect x="69.56" y="339.968" style="fill:#FAFAFA;" width="72.492" height="27.079"/>
		<path style="fill:#EBEBEB;" d="M96.353,339.968l0.317,3.61c0.104,1.191,1.101,2.104,2.297,2.104h13.679
			c1.195,0,2.192-0.913,2.297-2.104l0.317-3.61H96.353z"/>
	</g>
</g>
<g id="Background_Simple" style="display:none;">
	<g style="display:inline;">
		<path style="fill:#407BFF;" d="M145.392,315.59c-26.416-21.819-105.754-83.478-78.721-151.133
			c28.171-70.505,85.284-60.565,153.135-22.889c63.363,35.184,75.187-43.416,160.893,4.175
			c72.566,40.295,79.696,178.07-44.94,217.733C260.087,387.558,175.249,340.251,145.392,315.59z"/>
		<path style="opacity:0.9;fill:#FFFFFF;" d="M145.392,315.59c-26.416-21.819-105.754-83.478-78.721-151.133
			c28.171-70.505,85.284-60.565,153.135-22.889c63.363,35.184,75.187-43.416,160.893,4.175
			c72.566,40.295,79.696,178.07-44.94,217.733C260.087,387.558,175.249,340.251,145.392,315.59z"/>
	</g>
</g>
<g id="Shadow">
	<ellipse id="_x3C_Path_x3E__1_" style="fill:#F5F5F5;" cx="245.178" cy="412.391" rx="193.889" ry="11.323"/>
</g>
<g id="Artboard">
	<g>
		<g>
			<polygon style="fill:#263238;" points="355.468,244.888 162.618,244.888 174.11,80.538 366.96,80.538 			"/>
			<polygon style="opacity:0.9;fill:#FFFFFF;" points="355.468,244.888 162.618,244.888 174.11,80.538 366.96,80.538 			"/>
		</g>
		<polygon style="opacity:0.1;" points="165.648,201.55 162.618,244.888 355.468,244.888 358.498,201.55 		"/>
		<g>
			<path style="fill:#263238;" d="M320.246,205.053L320.246,205.053c-0.529,0-0.932-0.421-0.911-0.95l1.337-32.321h3.8
				l-3.183,32.321C321.237,204.632,320.775,205.053,320.246,205.053z"/>
			<g>
				<path style="fill:#263238;" d="M305.618,203.153L305.618,203.153c-0.578,0-0.992-0.502-0.888-1.077l5.495-30.294h3.8
					l-7.396,30.565C306.517,202.813,306.09,203.153,305.618,203.153z"/>
				<path style="fill:#263238;" d="M335.139,203.153L335.139,203.153c0.578,0,1.062-0.502,1.039-1.077l-1.259-30.294h-3.8
					l3.121,30.565C334.288,202.813,334.667,203.153,335.139,203.153z"/>
			</g>
		</g>
		<g style="opacity:0.6;">
			<path style="fill:#FFFFFF;" d="M320.246,205.053L320.246,205.053c-0.529,0-0.932-0.421-0.911-0.95l1.337-32.321h3.8
				l-3.183,32.321C321.237,204.632,320.775,205.053,320.246,205.053z"/>
			<g>
				<path style="fill:#FFFFFF;" d="M305.618,203.153L305.618,203.153c-0.578,0-0.992-0.502-0.888-1.077l5.495-30.294h3.8
					l-7.396,30.565C306.517,202.813,306.09,203.153,305.618,203.153z"/>
				<path style="fill:#FFFFFF;" d="M335.139,203.153L335.139,203.153c0.578,0,1.062-0.502,1.039-1.077l-1.259-30.294h-3.8
					l3.121,30.565C334.288,202.813,334.667,203.153,335.139,203.153z"/>
			</g>
		</g>
		<g>
			<polygon style="fill:#263238;" points="235.635,90.558 366.26,90.558 366.96,80.538 236.335,80.538 			"/>
			<polygon style="opacity:0.7;fill:#FFFFFF;" points="235.635,90.558 366.26,90.558 366.96,80.538 236.335,80.538 			"/>
			<polygon style="opacity:0.3;fill:#FFFFFF;" points="301.648,80.538 236.335,80.538 235.635,90.558 300.947,90.558 			"/>
		</g>
		<polygon style="fill:#263238;" points="356.119,92.933 345.659,242.513 353.259,242.513 363.719,92.933 		"/>
		<polygon style="opacity:0.6;fill:#FFFFFF;" points="356.119,92.933 345.659,242.513 353.259,242.513 363.719,92.933 		"/>
		<g>
			<path style="fill:#263238;" d="M227.214,88.715h-47.5c-0.874,0-1.534-0.709-1.473-1.583l0,0c0.061-0.874,0.82-1.583,1.694-1.583
				h47.5c0.874,0,1.534,0.709,1.473,1.583l0,0C228.847,88.006,228.088,88.715,227.214,88.715z"/>
			<path style="opacity:0.5;fill:#FFFFFF;" d="M227.214,88.715h-47.5c-0.874,0-1.534-0.709-1.473-1.583l0,0
				c0.061-0.874,0.82-1.583,1.694-1.583h47.5c0.874,0,1.534,0.709,1.473,1.583l0,0C228.847,88.006,228.088,88.715,227.214,88.715z"
				/>
		</g>
		<g>
			<g>
				<g>
					<path style="fill:#263238;" d="M279.777,227.208L279.777,227.208c0.759,0,1.367-0.711,1.238-1.448l-6.531-37.422h-4.099
						l8.326,38.025C278.821,226.863,279.255,227.208,279.777,227.208z"/>
					<path style="fill:#263238;" d="M259.364,227.208h0.054c0.708,0,1.297-0.623,1.253-1.325l-2.381-37.545h-4.099l4.088,37.905
						C258.34,226.801,258.797,227.208,259.364,227.208z"/>
				</g>
				<g style="opacity:0.5;">
					<path style="fill:#FFFFFF;" d="M279.777,227.208L279.777,227.208c0.759,0,1.367-0.711,1.238-1.448l-6.531-37.422h-4.099
						l8.326,38.025C278.821,226.863,279.255,227.208,279.777,227.208z"/>
					<path style="fill:#FFFFFF;" d="M259.364,227.208h0.054c0.708,0,1.297-0.623,1.253-1.325l-2.381-37.545h-4.099l4.088,37.905
						C258.34,226.801,258.797,227.208,259.364,227.208z"/>
				</g>
			</g>
			<path style="fill:#407BFF;" d="M218.397,178.099h34.339l-3.72-48.413c-0.939-12.22-11.04-21.968-22.765-21.968h-8.897
				c-11.725,0-20.796,9.748-20.443,21.968l0.789,27.309L218.397,178.099z"/>
			<path style="opacity:0.7;fill:#FFFFFF;" d="M218.397,178.099h34.339l-3.72-48.413c-0.939-12.22-11.04-21.968-22.765-21.968
				h-8.897c-11.725,0-20.796,9.748-20.443,21.968l0.789,27.309L218.397,178.099z"/>
			<path style="fill:#407BFF;" d="M262.862,178.099h-54.426l-1.398-48.413c-0.353-12.22,8.718-21.968,20.443-21.968h8.897
				c11.725,0,21.826,9.748,22.765,21.968L262.862,178.099z"/>
			<path style="fill:#407BFF;" d="M253.129,194.723c12.212-0.081,24.804-5.464,33.247-14.97c6.926-7.798,11.15-17.184,11.946-27.301
				c0.304-3.862-2.891-7.559-6.865-7.381h-22.963c-4.041,0.18-7.571,3.243-7.897,7.381c-0.065,0.832-0.145,1.662-0.262,2.492
				c-0.066,0.466-0.487,2.273-0.267,1.475c-0.438,1.647-0.898,3.271-1.53,4.873c-0.231,0.587-0.486,1.164-0.746,1.74
				c0.152-0.364-0.552,1.054-0.76,1.416c-0.856,1.487-1.829,2.888-2.856,4.268c-0.043,0.058-0.147,0.192-0.253,0.329
				c-0.147,0.174-0.348,0.415-0.421,0.494c-0.546,0.592-1.095,1.176-1.671,1.74c-0.646,0.633-1.314,1.244-2.003,1.83
				c-0.306,0.261-0.617,0.517-0.93,0.768c-0.09,0.072-0.536,0.399-0.782,0.583c-0.423,0.276-1.181,0.778-1.335,0.874
				c-0.684,0.426-1.381,0.831-2.089,1.212c-0.604,0.325-1.216,0.623-1.832,0.918c-1.172-0.634-2.359-1.224-3.473-1.97
				c-0.628-0.42-1.215-0.891-1.833-1.324c1.31,0.918-0.376-0.342-0.73-0.673c-1.234-1.151-2.376-2.4-3.411-3.734
				c-0.095-0.123-0.186-0.249-0.28-0.374c0.172,0.214-0.499-0.748-0.601-0.912c-0.447-0.723-0.864-1.466-1.253-2.224
				c-0.39-0.762-0.751-1.539-1.08-2.332c-0.147-0.354-0.276-0.715-0.421-1.07c0.654,1.592-0.031-0.163-0.111-0.433
				c-0.496-1.689-0.859-3.428-1.079-5.192c-0.049-0.395-0.071-0.802-0.128-1.196c0.255,1.749,0.002-0.136-0.004-0.47
				c-0.02-1.034,0.017-2.07,0.081-3.108c0.236-3.86-2.842-7.561-6.865-7.381h-22.963c-3.982,0.178-7.644,3.244-7.897,7.381
				c-1.095,17.917,9.052,33.575,25.322,39.814c4.58,1.756,9.521,2.546,14.516,2.453L253.129,194.723z"/>
			<path style="opacity:0.6;fill:#FFFFFF;" d="M253.129,194.723c12.212-0.081,24.804-5.464,33.247-14.97
				c6.926-7.798,11.15-17.184,11.946-27.301c0.304-3.862-2.891-7.559-6.865-7.381h-22.963c-4.041,0.18-7.571,3.243-7.897,7.381
				c-0.065,0.832-0.145,1.662-0.262,2.492c-0.066,0.466-0.487,2.273-0.267,1.475c-0.438,1.647-0.898,3.271-1.53,4.873
				c-0.231,0.587-0.486,1.164-0.746,1.74c0.152-0.364-0.552,1.054-0.76,1.416c-0.856,1.487-1.829,2.888-2.856,4.268
				c-0.043,0.058-0.147,0.192-0.253,0.329c-0.147,0.174-0.348,0.415-0.421,0.494c-0.546,0.592-1.095,1.176-1.671,1.74
				c-0.646,0.633-1.314,1.244-2.003,1.83c-0.306,0.261-0.617,0.517-0.93,0.768c-0.09,0.072-0.536,0.399-0.782,0.583
				c-0.423,0.276-1.181,0.778-1.335,0.874c-0.684,0.426-1.381,0.831-2.089,1.212c-0.604,0.325-1.216,0.623-1.832,0.918
				c-1.172-0.634-2.359-1.224-3.473-1.97c-0.628-0.42-1.215-0.891-1.833-1.324c1.31,0.918-0.376-0.342-0.73-0.673
				c-1.234-1.151-2.376-2.4-3.411-3.734c-0.095-0.123-0.186-0.249-0.28-0.374c0.172,0.214-0.499-0.748-0.601-0.912
				c-0.447-0.723-0.864-1.466-1.253-2.224c-0.39-0.762-0.751-1.539-1.08-2.332c-0.147-0.354-0.276-0.715-0.421-1.07
				c0.654,1.592-0.031-0.163-0.111-0.433c-0.496-1.689-0.859-3.428-1.079-5.192c-0.049-0.395-0.071-0.802-0.128-1.196
				c0.255,1.749,0.002-0.136-0.004-0.47c-0.02-1.034,0.017-2.07,0.081-3.108c0.236-3.86-2.842-7.561-6.865-7.381h-22.963
				c-3.982,0.178-7.644,3.244-7.897,7.381c-1.095,17.917,9.052,33.575,25.322,39.814c4.58,1.756,9.521,2.546,14.516,2.453
				L253.129,194.723z"/>
			<g>
				<path style="fill:#407BFF;" d="M283.56,152.452c-0.066,0.832-0.145,1.662-0.262,2.492c-0.073,0.521-0.594,2.728-0.162,1.086
					c-0.469,1.781-0.953,3.533-1.635,5.263c-0.297,0.754-0.628,1.495-0.968,2.233c0.697-1.512-0.286,0.484-0.538,0.923
					c-0.856,1.487-1.828,2.888-2.856,4.268c-0.143,0.191-0.942,1.21-0.317,0.428c0.622-0.779-0.191,0.216-0.357,0.395
					c-0.546,0.592-1.095,1.176-1.671,1.74c-0.646,0.633-1.314,1.244-2.003,1.83c-0.306,0.261-0.617,0.517-0.93,0.767
					c-0.165,0.132-1.53,1.123-0.655,0.515c0.722-0.501-1.207,0.782-1.463,0.942c-0.684,0.426-1.381,0.831-2.089,1.212
					c-0.712,0.384-1.436,0.731-2.165,1.078c-0.219,0.104-1.41,0.613-0.482,0.228c0.994-0.412-0.593,0.213-0.79,0.283
					c-1.538,0.546-3.108,0.989-4.692,1.321c-0.504,0.106-2.736,0.441-1.052,0.241c-1.031,0.122-2.064,0.207-3.096,0.244
					c-1.668,0.06-3.314-0.024-4.96-0.174c-0.383-0.035-1.339-0.302,0.142,0.022c-0.388-0.085-0.791-0.135-1.181-0.212
					c-0.874-0.173-1.739-0.383-2.592-0.625c-0.752-0.213-1.494-0.453-2.226-0.718c-0.363-0.132-0.715-0.298-1.083-0.415
					c-0.995-0.319,1.021,0.565,0.126,0.053c-1.407-0.804-2.866-1.474-4.217-2.379c-0.628-0.42-1.215-0.891-1.832-1.324
					c1.31,0.918-0.376-0.342-0.73-0.673c-1.234-1.151-2.376-2.4-3.411-3.734c-0.231-0.297-0.453-0.599-0.675-0.902
					c1.012,1.378-0.074-0.172-0.205-0.384c-0.447-0.723-0.864-1.466-1.252-2.224c-0.39-0.762-0.751-1.539-1.08-2.332
					c-0.147-0.354-0.276-0.715-0.421-1.07c0.654,1.592-0.031-0.163-0.111-0.433c-0.496-1.689-0.859-3.428-1.079-5.192
					c-0.049-0.395-0.071-0.802-0.129-1.196c0.255,1.75,0.002-0.136-0.004-0.47c-0.02-1.034,0.017-2.07,0.081-3.108
					c0.236-3.86-2.842-7.561-6.865-7.381c-3.982,0.178-7.644,3.244-7.897,7.381c-1.095,17.917,9.052,33.575,25.322,39.814
					c15.636,5.996,35.497,0.752,47.279-12.513c6.926-7.798,11.15-17.184,11.946-27.301c0.304-3.862-2.891-7.559-6.865-7.381
					C287.416,145.251,283.886,148.313,283.56,152.452L283.56,152.452z"/>
			</g>
			<g style="opacity:0.7;">
				<path style="fill:#FFFFFF;" d="M283.56,152.452c-0.066,0.832-0.145,1.662-0.262,2.492c-0.073,0.521-0.594,2.728-0.162,1.086
					c-0.469,1.781-0.953,3.533-1.635,5.263c-0.297,0.754-0.628,1.495-0.968,2.233c0.697-1.512-0.286,0.484-0.538,0.923
					c-0.856,1.487-1.828,2.888-2.856,4.268c-0.143,0.191-0.942,1.21-0.317,0.428c0.622-0.779-0.191,0.216-0.357,0.395
					c-0.546,0.592-1.095,1.176-1.671,1.74c-0.646,0.633-1.314,1.244-2.003,1.83c-0.306,0.261-0.617,0.517-0.93,0.767
					c-0.165,0.132-1.53,1.123-0.655,0.515c0.722-0.501-1.207,0.782-1.463,0.942c-0.684,0.426-1.381,0.831-2.089,1.212
					c-0.712,0.384-1.436,0.731-2.165,1.078c-0.219,0.104-1.41,0.613-0.482,0.228c0.994-0.412-0.593,0.213-0.79,0.283
					c-1.538,0.546-3.108,0.989-4.692,1.321c-0.504,0.106-2.736,0.441-1.052,0.241c-1.031,0.122-2.064,0.207-3.096,0.244
					c-1.668,0.06-3.314-0.024-4.96-0.174c-0.383-0.035-1.339-0.302,0.142,0.022c-0.388-0.085-0.791-0.135-1.181-0.212
					c-0.874-0.173-1.739-0.383-2.592-0.625c-0.752-0.213-1.494-0.453-2.226-0.718c-0.363-0.132-0.715-0.298-1.083-0.415
					c-0.995-0.319,1.021,0.565,0.126,0.053c-1.407-0.804-2.866-1.474-4.217-2.379c-0.628-0.42-1.215-0.891-1.832-1.324
					c1.31,0.918-0.376-0.342-0.73-0.673c-1.234-1.151-2.376-2.4-3.411-3.734c-0.231-0.297-0.453-0.599-0.675-0.902
					c1.012,1.378-0.074-0.172-0.205-0.384c-0.447-0.723-0.864-1.466-1.252-2.224c-0.39-0.762-0.751-1.539-1.08-2.332
					c-0.147-0.354-0.276-0.715-0.421-1.07c0.654,1.592-0.031-0.163-0.111-0.433c-0.496-1.689-0.859-3.428-1.079-5.192
					c-0.049-0.395-0.071-0.802-0.129-1.196c0.255,1.75,0.002-0.136-0.004-0.47c-0.02-1.034,0.017-2.07,0.081-3.108
					c0.236-3.86-2.842-7.561-6.865-7.381c-3.982,0.178-7.644,3.244-7.897,7.381c-1.095,17.917,9.052,33.575,25.322,39.814
					c15.636,5.996,35.497,0.752,47.279-12.513c6.926-7.798,11.15-17.184,11.946-27.301c0.304-3.862-2.891-7.559-6.865-7.381
					C287.416,145.251,283.886,148.313,283.56,152.452L283.56,152.452z"/>
			</g>
			<g>
				<g>
					<path style="fill:#263238;" d="M200.16,227.208L200.16,227.208c-0.759,0-1.267-0.711-1.035-1.448l11.3-35.944
						c0.273-0.868,1.093-1.478,1.986-1.478l0,0c1.29,0,2.133,1.237,1.689,2.476l-12.756,35.549
						C201.163,226.863,200.681,227.208,200.16,227.208z"/>
					<path style="fill:#263238;" d="M220.572,227.208h-0.054c-0.708,0-1.21-0.623-1.067-1.325l7.282-35.826
						c0.2-0.984,1.091-1.719,2.084-1.719l0,0c1.233,0,2.088,1.114,1.788,2.328l-8.813,35.577
						C221.654,226.801,221.139,227.208,220.572,227.208z"/>
				</g>
				<g style="opacity:0.5;">
					<path style="fill:#FFFFFF;" d="M200.16,227.208L200.16,227.208c-0.759,0-1.267-0.711-1.035-1.448l11.3-35.944
						c0.273-0.868,1.093-1.478,1.986-1.478l0,0c1.29,0,2.133,1.237,1.689,2.476l-12.756,35.549
						C201.163,226.863,200.681,227.208,200.16,227.208z"/>
					<path style="fill:#FFFFFF;" d="M220.572,227.208h-0.054c-0.708,0-1.21-0.623-1.067-1.325l7.282-35.826
						c0.2-0.984,1.091-1.719,2.084-1.719l0,0c1.233,0,2.088,1.114,1.788,2.328l-8.813,35.577
						C221.654,226.801,221.139,227.208,220.572,227.208z"/>
				</g>
			</g>
		</g>
		<g>
			<g>
				<polygon style="fill:#263238;" points="329.528,165.683 327.553,165.683 322.828,158.337 325.675,158.337 				"/>
				<polygon style="opacity:0.7;fill:#FFFFFF;" points="329.528,165.683 327.553,165.683 322.828,158.337 325.675,158.337 				"/>
			</g>
			<g>
				<polygon style="fill:#263238;" points="326.638,165.683 315.804,165.683 318.516,151.607 329.351,151.607 				"/>
				<polygon style="opacity:0.6;fill:#FFFFFF;" points="326.638,165.683 315.804,165.683 318.516,151.607 329.351,151.607 				"/>
				<polygon style="opacity:0.4;fill:#FFFFFF;" points="326.013,164.6 316.846,164.6 319.141,152.69 328.309,152.69 				"/>
				<polygon style="opacity:0.4;fill:#FFFFFF;" points="324.797,162.492 318.875,162.492 320.358,154.798 326.28,154.798 				"/>
			</g>
		</g>
		<path style="fill:#263238;" d="M335.407,172.733h-25.802c-2.144,0-3.761-1.738-3.611-3.882l0.238-3.401h33.567l-0.238,3.401
			C339.411,170.995,337.551,172.733,335.407,172.733z"/>
		<path style="opacity:0.8;fill:#FFFFFF;" d="M335.407,172.733h-25.802c-2.144,0-3.761-1.738-3.611-3.882l0.238-3.401h33.567
			l-0.238,3.401C339.411,170.995,337.551,172.733,335.407,172.733z"/>
		<path style="opacity:0.5;fill:#FFFFFF;" d="M351.16,187.616l-0.844,12.074c-0.082,1.181,0.808,2.138,1.988,2.138l0,0
			c1.181,0,2.204-0.957,2.287-2.138l0.844-12.074c0.083-1.181-0.807-2.137-1.988-2.137l0,0
			C352.267,185.479,351.243,186.436,351.16,187.616z"/>
		<polygon style="opacity:0.5;fill:#FFFFFF;" points="357.141,98.746 359.719,95.783 361.884,98.746 		"/>
		<polygon style="opacity:0.5;fill:#FFFFFF;" points="352.21,237.088 349.631,240.051 347.467,237.088 		"/>
	</g>
</g>
<g id="Tools_2">
	<g>
		<g>
			<polygon style="fill:#263238;" points="395.813,274.513 317.913,274.513 322.043,215.444 399.943,215.444 			"/>
			<polygon style="opacity:0.5;fill:#FFFFFF;" points="395.813,274.513 317.913,274.513 322.043,215.444 399.943,215.444 			"/>
		</g>
		<polygon style="opacity:0.3;" points="349.287,228.374 399.039,228.374 399.81,217.344 350.059,217.344 		"/>
		<polygon style="opacity:0.5;" points="399.81,217.344 321.91,217.344 322.043,215.444 399.943,215.444 		"/>
		<path style="opacity:0.5;fill:#FFFFFF;" d="M343.404,225.525h-16.81c-0.736,0-1.291-0.597-1.239-1.333l0,0
			c0.052-0.736,0.69-1.333,1.426-1.333h16.81c0.736,0,1.291,0.597,1.239,1.333l0,0C344.778,224.928,344.14,225.525,343.404,225.525z
			"/>
		<polygon style="fill:#407BFF;" points="333.296,240.348 324.225,240.348 324.859,231.277 333.931,231.277 		"/>
		<g style="opacity:0.9;">
			<polygon points="337.603,244.979 328.342,244.979 328.599,241.314 330.348,241.314 330.214,243.229 335.976,243.229 
				336.379,237.467 334.464,237.467 334.586,235.718 338.25,235.718 			"/>
		</g>
		<g style="opacity:0.5;">
			<g>
				<polygon style="fill:#FFFFFF;" points="396.623,220.537 388.548,220.537 388.647,219.112 396.723,219.112 				"/>
			</g>
			<g>
				<polygon style="fill:#FFFFFF;" points="396.411,223.572 388.336,223.572 388.435,222.147 396.51,222.147 				"/>
			</g>
			<g>
				<polygon style="fill:#FFFFFF;" points="396.198,226.607 388.123,226.607 388.223,225.182 396.298,225.182 				"/>
			</g>
		</g>
		<g style="opacity:0.5;">
			<polygon style="fill:#FFFFFF;" points="381.423,219.669 380.345,220.676 382.376,222.86 380.04,225.042 380.977,226.05 
				384.391,222.86 			"/>
			<polygon style="fill:#FFFFFF;" points="377.786,219.669 376.708,220.676 378.739,222.86 376.403,225.042 377.34,226.05 
				380.754,222.86 			"/>
		</g>
		<g>
			<polygon style="opacity:0.2;fill:#FFFFFF;" points="375.533,240.229 344.658,240.229 344.836,237.689 375.711,237.689 			"/>
			<polygon style="fill:#263238;" points="391.313,242.128 378.25,242.128 378.694,235.789 391.756,235.789 			"/>
			<polygon style="fill:#407BFF;" points="374.886,249.491 344.011,249.491 344.188,246.952 375.063,246.952 			"/>
			<polygon style="fill:#263238;" points="390.665,251.391 377.603,251.391 378.046,245.052 391.109,245.052 			"/>
			<polygon style="opacity:0.9;fill:#FFFFFF;" points="374.238,258.754 343.363,258.754 343.541,256.214 374.416,256.214 			"/>
			<polygon style="fill:#263238;" points="390.018,260.654 376.955,260.654 377.398,254.314 390.461,254.314 			"/>
			<polygon style="fill:#263238;" points="389.37,269.916 373.663,269.916 374.106,263.577 389.813,263.577 			"/>
			<g>
				<polygon style="fill:#263238;" points="346.892,243.355 344.44,243.355 344.545,241.852 345.837,240.902 346.997,241.852 				
					"/>
				<polygon style="fill:#263238;" points="345.597,261.88 343.144,261.88 343.25,260.377 344.542,259.427 345.702,260.377 				"/>
				<polygon style="fill:#263238;" points="374,252.617 371.548,252.617 371.653,251.115 372.945,250.165 374.105,251.115 				"/>
			</g>
			<g style="opacity:0.3;">
				<polygon style="fill:#FFFFFF;" points="346.892,243.355 344.44,243.355 344.545,241.852 345.837,240.902 346.997,241.852 				
					"/>
				<polygon style="fill:#FFFFFF;" points="345.597,261.88 343.144,261.88 343.25,260.377 344.542,259.427 345.702,260.377 				"/>
				<polygon style="fill:#FFFFFF;" points="374,252.617 371.548,252.617 371.653,251.115 372.945,250.165 374.105,251.115 				"/>
			</g>
		</g>
	</g>
</g>
<g id="Tools_1">
	<g>
		<g>
			<polygon style="fill:#263238;" points="174.497,213.984 96.597,213.984 100.727,154.916 178.627,154.916 			"/>
			<polygon style="opacity:0.5;fill:#FFFFFF;" points="174.497,213.984 96.597,213.984 100.727,154.916 178.627,154.916 			"/>
		</g>
		<polygon style="opacity:0.3;" points="127.972,167.846 177.723,167.846 178.495,156.816 128.743,156.816 		"/>
		<polygon style="opacity:0.5;" points="178.495,156.816 100.594,156.816 100.727,154.916 178.627,154.916 		"/>
		<path style="opacity:0.5;fill:#FFFFFF;" d="M122.088,164.996h-16.81c-0.736,0-1.291-0.597-1.239-1.333l0,0
			c0.051-0.736,0.69-1.332,1.426-1.332h16.81c0.736,0,1.291,0.597,1.239,1.332l0,0C123.463,164.4,122.824,164.996,122.088,164.996z"
			/>
		<polygon style="fill:#407BFF;" points="110.417,178.139 103.027,178.139 103.544,170.749 110.934,170.749 		"/>
		<g style="opacity:0.9;">
			<polygon points="113.926,181.911 106.381,181.911 106.59,178.926 108.015,178.926 107.906,180.486 112.6,180.486 
				112.928,175.792 111.368,175.792 111.468,174.367 114.453,174.367 			"/>
		</g>
		<g style="opacity:0.5;">
			<g>
				<polygon style="fill:#FFFFFF;" points="175.307,160.009 167.232,160.009 167.332,158.584 175.407,158.584 				"/>
			</g>
			<g>
				<polygon style="fill:#FFFFFF;" points="175.095,163.044 167.02,163.044 167.12,161.619 175.195,161.619 				"/>
			</g>
			<g>
				<polygon style="fill:#FFFFFF;" points="174.883,166.079 166.808,166.079 166.907,164.654 174.982,164.654 				"/>
			</g>
		</g>
		<g style="opacity:0.5;">
			<g>
				<polygon style="fill:#FFFFFF;" points="162.507,172.174 154.432,172.174 154.531,170.749 162.607,170.749 				"/>
			</g>
			<g>
				<polygon style="fill:#FFFFFF;" points="162.295,175.209 154.22,175.209 154.319,173.784 162.394,173.784 				"/>
			</g>
			<g>
				<polygon style="fill:#FFFFFF;" points="162.082,178.244 154.007,178.244 154.107,176.819 162.182,176.819 				"/>
			</g>
		</g>
		<g style="opacity:0.5;">
			<polygon style="fill:#FFFFFF;" points="160.107,159.14 159.029,160.148 161.06,162.331 158.724,164.514 159.661,165.522 
				163.075,162.331 			"/>
			<polygon style="fill:#FFFFFF;" points="156.471,159.14 155.393,160.148 157.423,162.331 155.087,164.514 156.024,165.522 
				159.438,162.331 			"/>
		</g>
		<g style="opacity:0.5;">
			<polygon style="fill:#FFFFFF;" points="171.158,175.209 170.945,178.244 174.27,178.244 174.483,175.209 			"/>
			<polygon style="fill:#FFFFFF;" points="171.257,173.784 174.582,173.784 174.795,170.749 171.47,170.749 			"/>
			<polygon style="fill:#FFFFFF;" points="169.832,173.784 170.045,170.749 166.72,170.749 166.507,173.784 			"/>
			<polygon style="fill:#FFFFFF;" points="169.733,175.209 166.408,175.209 166.195,178.244 169.52,178.244 			"/>
		</g>
		<g>
			<polygon style="fill:#263238;" points="113.306,197.569 123.518,197.569 124.232,187.356 114.02,187.356 			"/>
			<polygon style="opacity:0.6;fill:#FFFFFF;" points="113.306,197.569 123.518,197.569 124.232,187.356 114.02,187.356 			"/>
		</g>
		<g>
			<polygon style="fill:#263238;" points="124.468,197.569 134.681,197.569 135.395,187.356 125.182,187.356 			"/>
			<polygon style="opacity:0.4;fill:#FFFFFF;" points="124.468,197.569 134.681,197.569 135.395,187.356 125.182,187.356 			"/>
		</g>
		<g>
			<polygon style="fill:#407BFF;" points="112.523,208.759 122.736,208.759 123.45,198.547 113.237,198.547 			"/>
			<polygon style="opacity:0.4;fill:#FFFFFF;" points="112.523,208.759 122.736,208.759 123.45,198.547 113.237,198.547 			"/>
		</g>
		<g>
			<polygon style="fill:#407BFF;" points="123.686,208.759 133.898,208.759 134.612,198.547 124.4,198.547 			"/>
			<polygon style="opacity:0.2;fill:#FFFFFF;" points="123.686,208.759 133.898,208.759 134.612,198.547 124.4,198.547 			"/>
		</g>
		<g>
			<polygon style="fill:#263238;" points="102.143,197.569 112.356,197.569 113.07,187.356 102.857,187.356 			"/>
			<polygon style="opacity:0.8;fill:#FFFFFF;" points="102.143,197.569 112.356,197.569 113.07,187.356 102.857,187.356 			"/>
		</g>
		<g>
			<polygon style="fill:#407BFF;" points="101.361,208.759 111.573,208.759 112.287,198.547 102.075,198.547 			"/>
			<polygon style="opacity:0.6;fill:#FFFFFF;" points="101.361,208.759 111.573,208.759 112.287,198.547 102.075,198.547 			"/>
		</g>
		<g>
			<polygon style="fill:#407BFF;" points="157.173,208.759 167.386,208.759 168.1,198.547 157.887,198.547 			"/>
			<polygon style="opacity:0.4;" points="157.173,208.759 167.386,208.759 168.1,198.547 157.887,198.547 			"/>
		</g>
		<g>
			<polygon style="fill:#263238;" points="146.793,197.569 157.006,197.569 157.72,187.356 147.507,187.356 			"/>
		</g>
		<g>
			<polygon style="fill:#407BFF;" points="134.848,208.759 145.061,208.759 145.775,198.547 135.562,198.547 			"/>
		</g>
		<g>
			<polygon style="fill:#263238;" points="135.631,197.569 145.843,197.569 146.557,187.356 136.345,187.356 			"/>
			<polygon style="opacity:0.2;fill:#FFFFFF;" points="135.631,197.569 145.843,197.569 146.557,187.356 136.345,187.356 			"/>
		</g>
		<g>
			<polygon style="fill:#407BFF;" points="146.011,208.759 156.223,208.759 156.937,198.547 146.725,198.547 			"/>
			<polygon style="opacity:0.2;" points="146.011,208.759 156.223,208.759 156.937,198.547 146.725,198.547 			"/>
		</g>
	</g>
</g>
<g id="Character">
	<g>
		<g>
			<g>
				<rect x="167.744" y="344.264" style="fill:#263238;" width="5.693" height="31.75"/>
				<rect x="167.744" y="344.264" style="opacity:0.2;fill:#FFFFFF;" width="5.693" height="31.75"/>
			</g>
			<g>
				<g>
					<path style="fill:#263238;" d="M199.581,405.828l-28.835-10.618l-29.148,10.627c-1.006,0.367-2.071-0.378-2.071-1.449l0,0
						c0-0.601,0.349-1.147,0.893-1.4l30.326-14.071l30.021,14.07c0.541,0.254,0.887,0.798,0.887,1.395l0,0
						C201.655,405.453,200.587,406.198,199.581,405.828z"/>
					<path style="opacity:0.3;fill:#FFFFFF;" d="M199.581,405.828l-28.835-10.618l-29.148,10.627
						c-1.006,0.367-2.071-0.378-2.071-1.449l0,0c0-0.601,0.349-1.147,0.893-1.4l30.326-14.071l30.021,14.07
						c0.541,0.254,0.887,0.798,0.887,1.395l0,0C201.655,405.453,200.587,406.198,199.581,405.828z"/>
					<polygon style="opacity:0.2;" points="163.952,397.687 170.747,395.209 177.23,397.597 177.23,391.955 170.747,388.916 
						163.952,392.069 					"/>
					<path style="fill:#263238;" d="M170.591,406.074L170.591,406.074c-1.32,0-2.424-1.004-2.549-2.318l-0.814-8.548v-33.194h6.726
						v33.194l-0.814,8.548C173.014,405.07,171.911,406.074,170.591,406.074z"/>
					<path style="opacity:0.3;fill:#FFFFFF;" d="M170.591,406.074L170.591,406.074c-1.32,0-2.424-1.004-2.549-2.318l-0.814-8.548
						v-33.194h6.726v33.194l-0.814,8.548C173.014,405.07,171.911,406.074,170.591,406.074z"/>
				</g>
				<g>
					<circle style="fill:#407BFF;" cx="140.665" cy="410.514" r="3.75"/>
					<circle style="fill:#263238;" cx="140.665" cy="410.514" r="1.875"/>
				</g>
				<g>
					<circle style="fill:#407BFF;" cx="201.655" cy="410.514" r="3.75"/>
					<circle style="fill:#263238;" cx="201.655" cy="410.514" r="1.875"/>
				</g>
				<g>
					<ellipse style="fill:#407BFF;" cx="170.591" cy="410.514" rx="2.75" ry="3.75"/>
				</g>
			</g>
		</g>
		<rect x="140.665" y="276.598" style="fill:#263238;" width="4.431" height="12.333"/>
		<rect x="140.665" y="276.598" style="opacity:0.3;fill:#FFFFFF;" width="4.431" height="12.333"/>
		<g>
			<g>
				<path style="fill:#407BFF;" d="M157.664,280.893c0.841-0.016,1.685,0.36,2.248,1.295c10.768,17.906,14.593,39.431,10.878,59.967
					c-0.233,1.287-1.114,1.887-2.092,1.953c-1.63,0.111-30.646,0.008-31.698,0.006c-1.582-0.003-3.321-1.348-2.949-3.402
					c3.452-19.084-0.349-39.186-10.331-55.786c-1.24-2.063,0.589-3.999,2.438-4.034
					C126.998,280.877,155.815,280.929,157.664,280.893z"/>
				<path style="opacity:0.2;" d="M157.664,280.893c0.841-0.016,1.685,0.36,2.248,1.295c10.768,17.906,14.593,39.431,10.878,59.967
					c-0.233,1.287-1.114,1.887-2.092,1.953c-1.63,0.111-30.646,0.008-31.698,0.006c-1.582-0.003-3.321-1.348-2.949-3.402
					c3.452-19.084-0.349-39.186-10.331-55.786c-1.24-2.063,0.589-3.999,2.438-4.034
					C126.998,280.877,155.815,280.929,157.664,280.893z"/>
			</g>
			<g>
				<g>
					<path style="fill:#407BFF;" d="M134.05,340.713c3.452-19.084-0.349-39.186-10.331-55.786c-1.804-3.001,2.886-5.732,4.686-2.739
						c10.768,17.906,14.593,39.431,10.878,59.967C138.663,345.587,133.432,344.134,134.05,340.713L134.05,340.713z"/>
				</g>
			</g>
		</g>
		<g>
			<g>
				<path style="fill:#407BFF;" d="M224.533,339.142c-6.651-1.696-13.486-2.629-20.339-2.801
					c-7.063-0.177-33.501-0.027-39.779-0.029c-7.642-0.003-15.285,0.939-22.7,2.83c-4.661,1.189-3.224,7.915,0.986,7.993
					c0.372,0.007,80.292-0.017,80.586-0.004C227.69,347.331,229.297,340.357,224.533,339.142z"/>
				<path style="opacity:0.3;" d="M224.533,339.142c-6.651-1.696-13.486-2.629-20.339-2.801c-7.063-0.177-33.501-0.027-39.779-0.029
					c-7.642-0.003-15.285,0.939-22.7,2.83c-4.661,1.189-3.224,7.915,0.986,7.993c0.372,0.007,80.292-0.017,80.586-0.004
					C227.69,347.331,229.297,340.357,224.533,339.142z"/>
			</g>
			<g>
				<path style="fill:#407BFF;" d="M143.879,346.991c13.425-3.424,27.646-3.424,41.071,0c5.078,1.295,7.245-6.554,2.164-7.85
					c-14.829-3.782-30.57-3.782-45.399,0C136.642,340.436,138.792,348.289,143.879,346.991L143.879,346.991z"/>
			</g>
		</g>
		<g>
			<path style="fill:#407BFF;" d="M151.429,279.889c0.798,0.017,1.581-0.408,1.838-1.412c1.846-7.238,1.846-14.921,0-22.158
				c-0.237-0.93-0.924-1.362-1.657-1.409h-17.375c-1.221-0.078-2.57,0.916-2.174,2.465c1.671,6.553,1.671,13.493,0,20.046
				c-0.396,1.552,0.953,2.544,2.175,2.465L151.429,279.889z"/>
			<path style="opacity:0.2;" d="M151.429,279.889c0.798,0.017,1.581-0.408,1.838-1.412c1.846-7.238,1.846-14.921,0-22.158
				c-0.237-0.93-0.924-1.362-1.657-1.409h-17.375c-1.221-0.078-2.57,0.916-2.174,2.465c1.671,6.553,1.671,13.493,0,20.046
				c-0.396,1.552,0.953,2.544,2.175,2.465L151.429,279.889z"/>
			<g>
				<path style="fill:#407BFF;" d="M132.06,277.421c1.671-6.553,1.671-13.493,0-20.046c-0.632-2.479,3.199-3.536,3.831-1.056
					c1.846,7.238,1.846,14.921,0,22.158C135.26,280.953,131.427,279.904,132.06,277.421L132.06,277.421z"/>
			</g>
		</g>
	</g>
	<g>
		<g>
			<polygon style="fill:#CE7A63;" points="214.542,379.948 209.832,400.457 215.678,402.72 224.1,382.092 			"/>
			<path style="fill:#263238;" d="M215.572,401.698l-5.312-2.841c-0.231-0.124-0.517-0.072-0.689,0.126l-3.792,4.389
				c-0.339,0.387-0.301,0.975,0.086,1.315c0.05,0.044,0.104,0.082,0.161,0.114c2.23,1.151,4.259,2.088,7.007,3.572
				c3.245,1.749,2.212,1.693,5.999,3.802c2.283,1.268,4.111-1.119,3.205-1.772c-4.159-2.964-4.713-5.019-5.574-7.543
				C216.455,402.352,216.066,401.938,215.572,401.698z"/>
			<path style="fill:#263238;" d="M167.144,316.327l28.717-1.582c0,0,47.712,7.462,47.033,20.803s-20.125,55.4-20.125,55.4
				l-11.386-3.166c0,0,8.672-42.285,14.325-49.294c0,0-35.631-4.18-44.546-6.557C176.257,330.622,164.431,332.833,167.144,316.327z"
				/>
			<path style="opacity:0.3;" d="M220.889,337.906c0.129-2.692-0.138-6.885-2.189-11.516c-2.654-5.993-24.494-9.587-34.943-10.978
				l-16.612,0.915c-2.713,16.506,9.113,14.295,14.02,15.603C188.046,333.766,210.848,336.675,220.889,337.906z"/>
			<polygon style="fill:#CE7A63;" points="195.032,385.596 194.279,406.625 200.61,406.927 204.823,385.898 			"/>
			<path style="fill:#263238;" d="M200.156,405.015l-6.133,0.13c-0.267,0.005-0.495,0.194-0.549,0.456l-1.176,5.788
				c-0.108,0.513,0.22,1.016,0.733,1.124c0.066,0.014,0.133,0.021,0.2,0.02c2.553-0.091,4.822-0.272,8.003-0.326
				c3.753-0.067,2.809,0.399,7.222,0.381c2.659-0.013,3.09-3.044,1.961-3.172c-5.171-0.555-6.688-2.103-8.712-3.913
				C201.265,405.155,200.714,404.982,200.156,405.015z"/>
			<path style="fill:#263238;" d="M174.832,316.328c0,0,38.441,1.357,40.702,13.115c2.261,11.758-10.628,64.444-10.628,64.444
				h-11.532c0,0,1.357-47.259,5.201-57.209c0,0-31.657,4.975-40.023-2.21c-5.98-5.135,1.131-18.143,1.131-18.143L174.832,316.328z"
				/>
			<polygon style="fill:#263238;" points="210.48,385.295 224.805,389.289 222.185,394.797 209.127,391.551 			"/>
			<polygon style="opacity:0.3;fill:#FFFFFF;" points="210.48,385.295 224.805,389.289 222.185,394.797 209.127,391.551 			"/>
			<g>
				<polygon style="fill:#263238;" points="192.243,390.948 206.715,391.626 205.358,397.392 192.243,396.714 				"/>
				<polygon style="opacity:0.3;fill:#FFFFFF;" points="192.243,390.948 206.715,391.626 205.358,397.392 192.243,396.714 				"/>
			</g>
		</g>
		<g>
			<g>
				<polygon style="fill:#CE7A63;" points="207.173,291.202 225.801,291.517 235.163,287.478 241.163,292.578 238.788,295.202 
					232.604,294.127 224.727,296.306 206.163,297.423 				"/>
				<polygon style="opacity:0.1;" points="207.173,291.202 225.801,291.517 235.163,287.478 241.163,292.578 238.788,295.202 
					232.604,294.127 224.727,296.306 206.163,297.423 				"/>
			</g>
			<path style="fill:#407BFF;" d="M204.54,261.669c0,0,3.653,2.663,2.774,11.429c-0.879,8.767-5.125,17.776-0.383,17.962
				c0.422,0.017,1.231,0,1.231,0v6.364c0,0-11.768,3.027-12.509-2.774C194.913,288.848,204.54,261.669,204.54,261.669z"/>
			<path style="opacity:0.6;fill:#FFFFFF;" d="M204.54,261.669c0,0,3.653,2.663,2.774,11.429
				c-0.879,8.767-5.125,17.776-0.383,17.962c0.422,0.017,1.231,0,1.231,0v6.364c0,0-11.768,3.027-12.509-2.774
				C194.913,288.848,204.54,261.669,204.54,261.669z"/>
			<path style="opacity:0.1;" d="M195.654,294.649c0.741,5.802,12.509,2.774,12.509,2.774v-1.674
				c-7.205,1.234-6.306-1.899-5.862-3.69c4.234-17.09,2.583-25.698,1.642-28.677C201.855,269.431,195.025,289.728,195.654,294.649z"
				/>
			<polygon style="fill:#407BFF;" points="206.517,289.889 206.525,298.756 209.929,298.423 209.929,290.452 			"/>
			<polygon style="opacity:0.7;fill:#FFFFFF;" points="206.517,289.889 206.525,298.756 209.929,298.423 209.929,290.452 			"/>
			<g>
				<path style="fill:#407BFF;" d="M157.921,318.67c0,0,3.991-51.003,9.741-58.414c5.75-7.411,33.224-4.394,36.877,1.413
					c3.923,6.236-5.128,19.092-7.253,53.249C197.287,314.917,174.18,321.525,157.921,318.67z"/>
				<path style="opacity:0.4;fill:#FFFFFF;" d="M157.921,318.67c0,0,3.991-51.003,9.741-58.414
					c5.75-7.411,33.224-4.394,36.877,1.413c3.923,6.236-5.128,19.092-7.253,53.249C197.287,314.917,174.18,321.525,157.921,318.67z"
					/>
			</g>
			<path style="fill:#407BFF;" d="M188.773,254.283c-0.029,0.044-4.842-0.456-4.842-0.456l-1.691,2.05c0,0,2.911,5.055,3.645,13.346
				c0,0,2.464-3.877,4.063-3.948c1.6-0.07,3.053,1.874,3.053,1.874s2.053-2.125,3.211-2.13c1.158-0.005,2.77,3.183,2.77,3.183
				s-1.244-12.375-2.678-13.125C194.869,254.327,188.773,254.283,188.773,254.283z"/>
			<path style="opacity:0.7;fill:#FFFFFF;" d="M188.773,254.283c-0.029,0.044-4.842-0.456-4.842-0.456l-1.691,2.05
				c0,0,2.911,5.055,3.645,13.346c0,0,2.464-3.877,4.063-3.948c1.6-0.07,3.053,1.874,3.053,1.874s2.053-2.125,3.211-2.13
				c1.158-0.005,2.77,3.183,2.77,3.183s-1.244-12.375-2.678-13.125C194.869,254.327,188.773,254.283,188.773,254.283z"/>
			<path style="fill:#CE7A63;" d="M184.992,254.827c0,0-0.457,1.854,1.689,5.749c1.851,3.36,4.5,3.501,6.188,3.501
				s4.057-1.188,3.435-5.188C195.681,254.889,190.991,254.889,184.992,254.827z"/>
			<path style="fill:#CE7A63;" d="M195.613,253.098l-6.342-6.889c-0.603,5.284-2.665,8.286-3.86,9.623l0.572,2.588
				c7.686,8.642,9.46,0.345,9.46,0.345C193.572,257.197,195.613,253.098,195.613,253.098z"/>
			<path style="opacity:0.1;fill:#263238;" d="M191.812,248.968l-2.957-0.295c0,0,0.13,8.861,6.192,9.621
				c-1.125-1.789,0.566-5.196,0.566-5.196L191.812,248.968z"/>
			<g>
				<path style="fill:#263238;" d="M203.958,233.952c0,0,5.874-1.267,6.266,0.896c0.392,2.163-4.709,2.761-4.709,2.761
					L203.958,233.952z"/>
				<path style="fill:#CE7A63;" d="M190.135,238.632c-1.372,6.263-2.498,9.846-0.327,13.986c2.088,4.099,7.104,5.729,11.203,3.64
					c1.508-0.768,2.747-1.978,3.55-3.468c2.882-5.092,4.647-14.478-0.603-18.838c-3.497-3.07-8.822-2.724-11.892,0.773
					C191.091,235.835,190.425,237.183,190.135,238.632z"/>
				<path style="fill:#263238;" d="M198.859,243.329c-0.147,0.497,0.007,0.984,0.339,1.061c0.332,0.077,0.697-0.216,0.844-0.712
					c0.147-0.497-0.003-0.991-0.346-1.065C199.353,242.539,198.999,242.829,198.859,243.329z"/>
				<path style="fill:#263238;" d="M204.447,245.134c-0.147,0.497,0,0.98,0.339,1.061c0.339,0.081,0.697-0.216,0.848-0.72
					c0.151-0.504-0.007-0.984-0.346-1.065C204.948,244.329,204.591,244.626,204.447,245.134z"/>
				<path style="fill:#263238;" d="M197.65,240.943c-0.048-0.01-0.094-0.031-0.132-0.063c-0.102-0.131-0.08-0.319,0.051-0.422
					c0.003-0.003,0.007-0.005,0.01-0.008c0.773-0.61,1.799-0.795,2.736-0.493c0.155,0.059,0.233,0.232,0.174,0.387
					c-0.001,0.003-0.002,0.006-0.004,0.009c-0.059,0.155-0.232,0.233-0.387,0.174c-0.003-0.001-0.006-0.002-0.009-0.003
					c-0.73-0.228-1.525-0.088-2.132,0.376C197.873,240.975,197.752,240.992,197.65,240.943z"/>
				<path style="fill:#263238;" d="M207.4,243.962c-0.092-0.041-0.157-0.126-0.171-0.226c-0.11-0.785-0.579-1.475-1.268-1.865
					c-0.14-0.097-0.174-0.29-0.077-0.429c0.076-0.109,0.212-0.157,0.339-0.12l0,0c0.866,0.475,1.458,1.331,1.596,2.309
					c0.029,0.163-0.079,0.319-0.243,0.349c-0.002,0-0.003,0.001-0.005,0.001C207.513,243.993,207.453,243.987,207.4,243.962z"/>
				<path style="fill:#263238;" d="M198.417,251.218c0.278,0.081,0.563,0.139,0.851,0.172c0.092,0.016,0.18-0.047,0.196-0.139
					c0-0.002,0.001-0.004,0.001-0.006c0.006-0.096-0.064-0.179-0.159-0.19c-1.474-0.157-2.786-1.005-3.535-2.284
					c-0.042-0.086-0.145-0.122-0.231-0.08c-0.086,0.042-0.122,0.145-0.08,0.231C196.096,250.055,197.162,250.883,198.417,251.218z"
					/>
				<path style="fill:#263238;" d="M190.322,244.808c0,0,1.236,1.867,1.975,0.495c0.738-1.372,0.228-6.694,0.228-6.694
					s3.594-2.428,5.927-2.678s10.333,0.25,11.667-5.333c1.139-4.772-7.385-1.917-7.385-1.917s-0.896-4.019-5.329-3.291
					c-2.786,0.458-4.62,3.208-4.62,3.208s-5.195-0.482-7.437,1.917c-1.682,1.799,0,4.333,0,4.333s-2.116,1.733-1.902,4.968
					c0.146,2.199,1.088,2.865,1.088,2.865s1.458,5.583,3.416,6.917c0.898,0.612,0.471-0.346,0.829-1.561
					C189.202,246.602,190.322,244.808,190.322,244.808z"/>
				<path style="fill:#BA4D3C;" d="M202.503,244.808c0.156,1.723,0.538,3.418,1.137,5.041c-1.105,0.543-2.496-0.293-2.496-0.293
					L202.503,244.808z"/>
				<path style="fill:#407BFF;" d="M205.77,243.693c-0.641-0.2-1.481-0.455-2.158-0.247l-1.921-0.598
					c-0.44-0.556-1.276-0.822-1.917-1.021c-0.548-0.171-1.24-0.379-1.854-0.308l-8.076-0.271l-0.017,0.5l7.176,0.241
					c-0.158,0.177-0.3,0.393-0.396,0.702c-0.453,1.457,0.363,3.009,1.82,3.463c1.456,0.453,3.009-0.363,3.462-1.819
					c0.107-0.344,0.109-0.628,0.062-0.882l1.101,0.343c-0.182,0.182-0.342,0.417-0.449,0.761c-0.453,1.457,0.363,3.009,1.82,3.462
					c1.456,0.453,3.009-0.363,3.462-1.819C208.41,244.515,206.821,244.02,205.77,243.693z M201.412,244.187
					c-0.371,1.193-1.643,1.861-2.836,1.49c-1.193-0.371-1.862-1.644-1.491-2.837c0.32-1.028,1.074-0.991,2.54-0.535
					C201.09,242.761,201.732,243.159,201.412,244.187z M207.408,246.052c-0.371,1.193-1.643,1.861-2.836,1.49
					c-1.193-0.371-1.862-1.644-1.491-2.837c0.32-1.028,1.074-0.991,2.54-0.535C207.087,244.627,207.728,245.025,207.408,246.052z"/>
				<path style="opacity:0.4;fill:#FFFFFF;" d="M205.77,243.693c-0.641-0.2-1.481-0.455-2.158-0.247l-1.921-0.598
					c-0.44-0.556-1.276-0.822-1.917-1.021c-0.548-0.171-1.24-0.379-1.854-0.308l-8.076-0.271l-0.017,0.5l7.176,0.241
					c-0.158,0.177-0.3,0.393-0.396,0.702c-0.453,1.457,0.363,3.009,1.82,3.463c1.456,0.453,3.009-0.363,3.462-1.819
					c0.107-0.344,0.109-0.628,0.062-0.882l1.101,0.343c-0.182,0.182-0.342,0.417-0.449,0.761c-0.453,1.457,0.363,3.009,1.82,3.462
					c1.456,0.453,3.009-0.363,3.462-1.819C208.41,244.515,206.821,244.02,205.77,243.693z M201.412,244.187
					c-0.371,1.193-1.643,1.861-2.836,1.49c-1.193-0.371-1.862-1.644-1.491-2.837c0.32-1.028,1.074-0.991,2.54-0.535
					C201.09,242.761,201.732,243.159,201.412,244.187z M207.408,246.052c-0.371,1.193-1.643,1.861-2.836,1.49
					c-1.193-0.371-1.862-1.644-1.491-2.837c0.32-1.028,1.074-0.991,2.54-0.535C207.087,244.627,207.728,245.025,207.408,246.052z"/>
				<path style="fill:#CE7A63;" d="M186.349,243.076c0.027,1.433,0.594,2.802,1.587,3.835c1.313,1.338,2.82,0.33,3.159-1.434
					c0.305-1.6-0.015-4.208-1.675-4.875C187.759,239.935,186.331,241.305,186.349,243.076z"/>
			</g>
			<g>
				<g>
					<polygon style="fill:#CE7A63;" points="189.466,290.098 209.929,292.098 219.398,287.974 223.577,291.219 222.079,293.093 
						217.496,293.848 211.173,296.649 189.996,297.181 					"/>
				</g>
				<g>
					<path style="opacity:0.1;" d="M174.477,290.931c-3.256-5.012-6.143-12.739-7.172-19.311
						c-0.118,9.402,1.657,28.297,18.106,25.997C181.706,297.085,177.388,295.412,174.477,290.931z"/>
					<path style="fill:#407BFF;" d="M169.329,259.687c3.729-1.922,7.167,1.411,10.167,15.078c3,13.667,12,14.452,12,14.452
						l0.801,8.214c0,0-12.176,2.833-18.238-6.5C167.996,281.598,163.202,262.845,169.329,259.687z"/>
					<path style="opacity:0.6;fill:#FFFFFF;" d="M169.329,259.687c3.729-1.922,7.167,1.411,10.167,15.078
						c3,13.667,12,14.452,12,14.452l0.801,8.214c0,0-12.176,2.833-18.238-6.5C167.996,281.598,163.202,262.845,169.329,259.687z"/>
					<g>
						<polygon style="fill:#407BFF;" points="190.505,287.974 191.663,298.666 195.176,298.212 194.089,288.428 						"/>
						<polygon style="opacity:0.7;fill:#FFFFFF;" points="190.505,287.974 191.663,298.666 195.176,298.212 194.089,288.428 						
							"/>
					</g>
				</g>
			</g>
		</g>
	</g>
</g>
<g id="Table">
	<g>
		<g>
			<rect x="198.195" y="302.194" style="fill:#263238;" width="154.803" height="3.438"/>
			<rect x="198.195" y="302.194" style="opacity:0.3;fill:#FFFFFF;" width="80.255" height="3.438"/>
			<rect x="278.449" y="302.194" style="opacity:0.2;fill:#FFFFFF;" width="74.549" height="3.438"/>
			<rect x="190.507" y="298.756" style="fill:#407BFF;" width="170.18" height="3.438"/>
			<rect x="270.761" y="298.756" style="opacity:0.3;" width="89.925" height="3.438"/>
		</g>
		<g>
			<g>
				<polygon style="fill:#263238;" points="259.404,411.843 237.348,404.778 237.348,305.633 235.107,305.633 231.512,305.633 
					229.27,305.633 229.27,404.778 207.214,411.843 207.214,416.176 209.456,416.176 233.309,413.311 257.162,416.176 
					259.404,416.176 				"/>
				<polygon style="opacity:0.1;fill:#FFFFFF;" points="259.404,411.843 237.348,404.778 237.348,305.633 235.107,305.633 
					231.512,305.633 229.27,305.633 229.27,404.778 207.214,411.843 207.214,416.176 209.456,416.176 233.309,413.311 
					257.162,416.176 259.404,416.176 				"/>
				<polygon style="fill:#263238;" points="235.107,404.778 235.107,305.633 229.27,305.633 229.27,404.778 207.214,411.843 
					207.214,416.176 232.188,413.176 257.162,416.176 257.162,411.843 				"/>
				<polygon style="opacity:0.3;fill:#FFFFFF;" points="235.107,404.778 235.107,305.633 229.27,305.633 229.27,404.778 
					207.214,411.843 207.214,416.176 232.188,413.176 257.162,416.176 257.162,411.843 				"/>
			</g>
			<g>
				<polygon style="fill:#263238;" points="343.979,411.843 321.923,404.778 321.923,305.633 319.682,305.633 316.087,305.633 
					313.845,305.633 313.845,404.778 291.789,411.843 291.789,416.176 294.031,416.176 317.884,413.311 341.737,416.176 
					343.979,416.176 				"/>
				<polygon style="fill:#263238;" points="319.682,404.778 319.682,305.633 313.845,305.633 313.845,404.778 291.789,411.843 
					291.789,416.176 316.763,413.176 341.737,416.176 341.737,411.843 				"/>
				<polygon style="opacity:0.2;fill:#FFFFFF;" points="319.682,404.778 319.682,305.633 313.845,305.633 313.845,404.778 
					291.789,411.843 291.789,416.176 316.763,413.176 341.737,416.176 341.737,411.843 				"/>
			</g>
		</g>
	</g>
	<g>
		<g>
			<polygon style="fill:#407BFF;" points="249.603,294.809 228.635,295.809 228.635,298.787 249.603,298.787 263.103,298.787 
				263.103,294.809 			"/>
			<polygon style="opacity:0.3;fill:#FFFFFF;" points="249.603,298.787 228.635,298.787 228.635,295.809 249.603,294.809 			"/>
			<rect x="249.603" y="294.809" style="opacity:0.6;fill:#FFFFFF;" width="13.5" height="3.978"/>
		</g>
		<g>
			<path style="fill:#407BFF;" d="M213.317,298.787c-1.035,0-1.704-1.095-1.242-2.021c1.268-2.537,4.9-3.704,8.093-3.704
				c3.389,0,5.18,1.314,5.618,4.186c0.124,0.816-0.552,1.539-1.378,1.539H213.317z"/>
			<path style="opacity:0.6;fill:#FFFFFF;" d="M213.317,298.787c-1.035,0-1.704-1.095-1.242-2.021
				c1.268-2.537,4.9-3.704,8.093-3.704c3.389,0,5.18,1.314,5.618,4.186c0.124,0.816-0.552,1.539-1.378,1.539H213.317z"/>
		</g>
		<g>
			<path style="fill:#407BFF;" d="M320.792,240.06l-47.526-0.244l-5.009,47.662l47.577-0.244c2.019-1.086,3.407-3.109,3.638-5.301
				l3.844-36.571C323.545,243.169,322.582,241.145,320.792,240.06z"/>
			<path style="opacity:0.5;fill:#FFFFFF;" d="M320.792,240.06l-47.526-0.244l-5.009,47.662l47.577-0.244
				c2.019-1.086,3.407-3.109,3.638-5.301l3.844-36.571C323.545,243.169,322.582,241.145,320.792,240.06z"/>
			<g>
				<path style="fill:#407BFF;" d="M268.71,287.233l-0.454,0.244l5.009-47.662l0.403,0.244c1.79,1.086,2.753,3.109,2.523,5.301
					l-3.844,36.57C272.118,284.124,270.729,286.148,268.71,287.233z"/>
				<path style="opacity:0.3;fill:#FFFFFF;" d="M268.71,287.233l-0.454,0.244l5.009-47.662l0.403,0.244
					c1.79,1.086,2.753,3.109,2.523,5.301l-3.844,36.57C272.118,284.124,270.729,286.148,268.71,287.233z"/>
			</g>
			<path style="opacity:0.1;" d="M289.714,287.233l-0.252,0.135l9.702-0.05l-0.895-8.054l-4.567-0.674l-0.351,3.341
				C293.121,284.124,291.733,286.148,289.714,287.233z"/>
			<polygon style="fill:#407BFF;" points="306.887,296.798 297.653,296.798 293.653,278.511 302.887,278.511 			"/>
			<g>
				<polygon style="fill:#407BFF;" points="298.27,294.809 277.302,295.809 277.302,298.787 298.27,298.787 311.77,298.787 
					311.77,294.809 				"/>
				<polygon style="opacity:0.3;fill:#FFFFFF;" points="298.27,298.787 277.302,298.787 277.302,295.809 298.27,294.809 				"/>
				<rect x="298.27" y="294.809" style="opacity:0.6;fill:#FFFFFF;" width="13.5" height="3.978"/>
			</g>
		</g>
	</g>
</g>
<g id="Cursor">
	<g>
		<g>
			<polygon style="fill:#407BFF;" points="283.246,169.604 265.764,162.392 272.976,179.874 275.497,173.928 282.644,181.075 
				284.447,179.271 277.3,172.125 			"/>
			<polygon style="opacity:0.9;fill:#FFFFFF;" points="283.246,169.604 265.764,162.392 272.976,179.874 275.497,173.928 
				282.644,181.075 284.447,179.271 277.3,172.125 			"/>
			<path style="fill:#263238;" d="M282.644,181.976l-6.929-6.929l-2.746,6.48l-8.379-20.309l20.309,8.378l-6.479,2.747l6.929,6.929
				L282.644,181.976z M275.279,172.808l7.365,7.365l0.901-0.901l-7.365-7.365l5.413-2.294l-14.656-6.047l6.046,14.656
				L275.279,172.808z"/>
		</g>
		<g>
			<rect x="282.747" y="182.979" style="fill:#407BFF;" width="9.137" height="9.137"/>
			<rect x="282.747" y="182.979" style="opacity:0.9;fill:#FFFFFF;" width="9.137" height="9.137"/>
			<path style="fill:#263238;" d="M292.309,192.541h-9.988v-9.988h9.988V192.541z M283.172,191.691h8.288v-8.287h-8.288V191.691z"/>
			<polygon style="fill:#263238;" points="290.503,186.91 287.953,186.91 287.953,184.36 286.678,184.36 286.678,186.91 
				284.128,186.91 284.128,188.185 286.678,188.185 286.678,190.735 287.953,190.735 287.953,188.185 290.503,188.185 			"/>
		</g>
	</g>
</g>
</svg>
